<svg width="33" height="49" viewBox="0 0 33 49" fill="none" xmlns="http://www.w3.org/2000/svg">
<path d="M28.05 0H4.95C2.21719 0 0 2.05762 0 4.59375V44.4062C0 46.9424 2.21719 49 4.95 49H28.05C30.7828 49 33 46.9424 33 44.4062V4.59375C33 2.05762 30.7828 0 28.05 0ZM16.5 45.9375C14.6747 45.9375 13.2 44.5689 13.2 42.875C13.2 41.1811 14.6747 39.8125 16.5 39.8125C18.3253 39.8125 19.8 41.1811 19.8 42.875C19.8 44.5689 18.3253 45.9375 16.5 45.9375ZM28.05 35.6016C28.05 36.2332 27.4931 36.75 26.8125 36.75H6.1875C5.50688 36.75 4.95 36.2332 4.95 35.6016V5.74219C4.95 5.11055 5.50688 4.59375 6.1875 4.59375H26.8125C27.4931 4.59375 28.05 5.11055 28.05 5.74219V35.6016Z" fill="url(#paint0_linear_4513_3482)"/>
<defs>
<linearGradient id="paint0_linear_4513_3482" x1="33" y1="24.9153" x2="1.64517" y2="21.3247" gradientUnits="userSpaceOnUse">
<stop stop-color="#4444C1"/>
<stop offset="0.973958" stop-color="#9430B7"/>
</linearGradient>
</defs>
</svg>
